<svg xmlns="http://www.w3.org/2000/svg" width="28" height="30" viewBox="0 0 28 30">
  <path id="cart" d="M25.18,19.753h16.6a3.418,3.418,0,0,0,3.418-3.4V9.321a.078.078,0,0,0-.006-.037c0-.012-.006-.031-.006-.043s-.006-.025-.006-.037a.393.393,0,0,1-.012-.043c-.006-.012-.006-.025-.012-.037s-.006-.025-.012-.037a.3.3,0,0,1-.019-.043.135.135,0,0,0-.019-.031l-.019-.037c-.006-.012-.012-.018-.019-.031s-.019-.025-.025-.037a.108.108,0,0,0-.025-.031C45.014,8.864,45,8.858,45,8.846s-.019-.018-.025-.031-.019-.018-.025-.025l-.031-.031c-.012-.006-.019-.018-.031-.025s-.025-.018-.037-.025-.019-.012-.031-.018a.13.13,0,0,1-.037-.025l-.037-.018L44.7,8.63l-.037-.018c-.012-.006-.025-.006-.037-.012a.115.115,0,0,0-.043-.012.27.27,0,0,1-.031-.006.137.137,0,0,0-.05-.006c-.006,0-.012-.006-.025-.006L23.44,5.677V2.754a.378.378,0,0,0-.006-.086.046.046,0,0,0-.006-.025c0-.018-.006-.037-.006-.055s-.006-.031-.012-.049S23.4,2.52,23.4,2.508l-.019-.055c0-.006-.006-.018-.006-.025a.184.184,0,0,0-.025-.049c-.006-.006-.006-.018-.012-.025a.129.129,0,0,0-.025-.037C23.31,2.3,23.3,2.3,23.3,2.286s-.012-.018-.019-.031-.019-.025-.025-.037L23.236,2.2,23.2,2.162l-.019-.018a.269.269,0,0,0-.043-.037c-.006-.006-.019-.012-.025-.018s-.025-.018-.037-.031a.571.571,0,0,0-.05-.031c-.006-.006-.012-.006-.019-.012l-.08-.037L18.362.066a.834.834,0,1,0-.65,1.535l4.05,1.7V21.541a3.412,3.412,0,0,0,2.979,3.373,3.369,3.369,0,1,0,6.267,1.726,3.286,3.286,0,0,0-.464-1.7H38.06a3.3,3.3,0,0,0-.464,1.7,3.375,3.375,0,1,0,3.375-3.36H25.18a1.744,1.744,0,0,1-1.746-1.739V19.284A3.469,3.469,0,0,0,25.18,19.753Zm4.161,6.881a1.7,1.7,0,1,1-1.7-1.7A1.7,1.7,0,0,1,29.342,26.634Zm13.338,0a1.7,1.7,0,1,1-1.7-1.7A1.7,1.7,0,0,1,42.68,26.634Zm-.9-8.546H25.18a1.744,1.744,0,0,1-1.746-1.739v-9L43.528,10.11v6.233A1.746,1.746,0,0,1,41.782,18.088Z" transform="translate(-17.2 0)" fill="#00ab93"/>
</svg>
