<svg xmlns="http://www.w3.org/2000/svg" width="18" height="24" viewBox="0 0 18 24">
  <g id="user" transform="translate(-7)" fill="none" opacity="0.3">
    <path d="M23.049,17.156l-3.738-1.91a1.055,1.055,0,0,1-.572-.946V12.947c.09-.112.184-.24.281-.38a9.232,9.232,0,0,0,1.156-2.32A1.589,1.589,0,0,0,21.087,8.8V7.2A1.616,1.616,0,0,0,20.7,6.15V4.022a3.643,3.643,0,0,0-.819-2.61A4.865,4.865,0,0,0,16,0a4.867,4.867,0,0,0-3.877,1.412,3.644,3.644,0,0,0-.819,2.61V6.15a1.616,1.616,0,0,0-.391,1.05V8.8a1.6,1.6,0,0,0,.586,1.244,8.468,8.468,0,0,0,1.371,2.895v1.324a1.061,1.061,0,0,1-.539.928L8.84,17.136A3.62,3.62,0,0,0,7,20.3v1.3c0,1.9,5.887,2.4,9,2.4s9-.5,9-2.4V20.383A3.6,3.6,0,0,0,23.049,17.156Z" stroke="none"/>
    <path d="M 16 22.79999923706055 C 17.65000915527344 22.79999923706055 19.4773006439209 22.66250038146973 20.88800048828125 22.43218040466309 C 23.04092979431152 22.08068656921387 23.6598949432373 21.62943458557129 23.79999923706055 21.49788284301758 L 23.79999923706055 20.38279914855957 C 23.79999923706055 19.46036911010742 23.30290031433105 18.63318061828613 22.50287055969238 18.22414016723633 L 18.76421928405762 16.31348037719727 C 18.00856018066406 15.92683029174805 17.53912925720215 15.15499973297119 17.53912925720215 14.2992000579834 L 17.53912925720215 12.94680023193359 L 17.53912925720215 12.52583026885986 L 17.8021297454834 12.19711017608643 C 17.87376976013184 12.10756969451904 17.95169067382813 12.00205993652344 18.03397941589355 11.88315010070801 C 18.4547290802002 11.27565956115723 18.79285049438477 10.59646034240723 19.0389404296875 9.864419937133789 L 19.20244979858398 9.378029823303223 L 19.66708946228027 9.160240173339844 C 19.80270957946777 9.096670150756836 19.88695907592773 8.958629608154297 19.88695907592773 8.800000190734863 L 19.88695907592773 7.199999809265137 C 19.88695907592773 7.103400230407715 19.85086059570313 7.008170127868652 19.78531074523926 6.931839942932129 L 19.49564933776855 6.594580173492432 L 19.49564933776855 6.150000095367432 L 19.49564933776855 4.02239990234375 L 19.49564933776855 3.962769985198975 L 19.50156021118164 3.903429985046387 C 19.50551986694336 3.863709926605225 19.59127998352051 2.92248010635376 18.96612930297852 2.193579912185669 C 18.40073013305664 1.534289956092834 17.40278053283691 1.200000047683716 16 1.200000047683716 C 14.59724044799805 1.200000047683716 13.59922981262207 1.534219980239868 13.03384017944336 2.193219900131226 C 12.40872955322266 2.922080039978027 12.4944896697998 3.863749980926514 12.49843978881836 3.903480052947998 L 12.50434970855713 3.962790012359619 L 12.50434970855713 4.02239990234375 L 12.50434970855713 6.150000095367432 L 12.50434970855713 6.594580173492432 L 12.21469020843506 6.931839942932129 C 12.14914035797119 7.008170127868652 12.11303997039795 7.103400230407715 12.11303997039795 7.199999809265137 L 12.11303997039795 8.800000190734863 C 12.11303997039795 8.924200057983398 12.16644954681396 9.039219856262207 12.25955963134766 9.11555004119873 L 12.56811046600342 9.368470191955566 L 12.66380023956299 9.755789756774902 C 12.97294998168945 11.00710010528564 13.63518047332764 11.95829963684082 13.83078002929688 12.22002983093262 L 14.06956005096436 12.53952980041504 L 14.06956005096436 12.93840026855469 L 14.06956005096436 14.26200008392334 C 14.06956005096436 15.08308029174805 13.62753963470459 15.84008979797363 12.91512966156006 16.23809051513672 L 9.424480438232422 18.18438911437988 C 8.669190406799316 18.60569000244141 8.199999809265137 19.41818046569824 8.199999809265137 20.30480003356934 L 8.199999809265137 21.49788284301758 C 8.340104103088379 21.62943458557129 8.959070205688477 22.08068656921387 11.11200046539307 22.43218040466309 C 12.52270030975342 22.66250038146973 14.34998989105225 22.79999923706055 16 22.79999923706055 M 16 24 C 12.88716983795166 24 7 23.49839973449707 7 21.60000038146973 L 7 20.30480003356934 C 7 18.98320007324219 7.704740047454834 17.76959991455078 8.839909553527832 17.13640022277832 L 12.33073997497559 15.1899995803833 C 12.66296005249023 15.0044002532959 12.86956024169922 14.64920043945313 12.86956024169922 14.26200008392334 L 12.86956024169922 12.93840026855469 C 12.60739040374756 12.5875997543335 11.85725975036621 11.49440002441406 11.49882984161377 10.04360008239746 C 11.12942981719971 9.740799903869629 10.91304016113281 9.286800384521484 10.91304016113281 8.800000190734863 L 10.91304016113281 7.199999809265137 C 10.91304016113281 6.814799785614014 11.05391025543213 6.44159984588623 11.30434989929199 6.150000095367432 L 11.30434989929199 4.02239990234375 C 11.28244018554688 3.8024001121521 11.19635009765625 2.492399930953979 12.12296009063721 1.411999940872192 C 12.9266996383667 0.4751999974250793 14.2309103012085 -1.77635683940025e-15 16 -1.77635683940025e-15 C 17.76909065246582 -1.77635683940025e-15 19.07331085205078 0.4751999974250793 19.87704086303711 1.412400007247925 C 20.80364990234375 2.492799997329712 20.71756935119629 3.8024001121521 20.69565010070801 4.02239990234375 L 20.69565010070801 6.150000095367432 C 20.94609069824219 6.44159984588623 21.08695983886719 6.814799785614014 21.08695983886719 7.199999809265137 L 21.08695983886719 8.800000190734863 C 21.08695983886719 9.430000305175781 20.72851943969727 9.98799991607666 20.17638969421387 10.24680042266846 C 19.89386940002441 11.08720016479492 19.50530052185059 11.86639976501465 19.02047920227051 12.56639957427979 C 18.92304039001465 12.707200050354 18.82873916625977 12.83479976654053 18.7391300201416 12.94680023193359 L 18.7391300201416 14.2992000579834 C 18.7391300201416 14.70240020751953 18.95825958251953 15.06480026245117 19.31082916259766 15.24520015716553 L 23.04895973205566 17.15559959411621 C 24.25222015380859 17.77079963684082 25 19.00760078430176 25 20.38279914855957 L 25 21.60000038146973 C 25 23.49839973449707 19.11282920837402 24 16 24 Z" stroke="none" fill="#333"/>
  </g>
</svg>
